#!OML:ASF F:\VICON\USERDATA\INSTALL\rory3\rory3.ASF
:FULLY-SPECIFIED
:DEGREES
35
root -1.49174 17.9308 41.6488 -174.774 6.58736 -177.862
lowerback 20.9093 -0.5721 0.998548
upperback 2.56225 0.983418 6.58136
thorax -9.03613 0.924453 6.3668
lowerneck -11.054 -0.825318 -1.68702
upperneck 16.3191 0.558512 -5.05395
head 6.82519 -0.0807549 -1.27587
rclavicle -3.18055e-015 -1.74931e-014
rhumerus -60.2279 -38.2835 -37.47
rradius 71.2849
rwrist -52.3023
rhand -19.0115 -4.40502
rfingers 7.12502
rthumb 7.29406 -34.2593
lclavicle -3.18055e-015 -1.74931e-014
lhumerus -50.0192 10.5124 79.8325
lradius 38.6935
lwrist 6.94053
lhand -7.76303 51.9388
lfingers 7.12502
lthumb 18.1368 81.1132
rfemur 4.97268 2.09397 22.8632
rtibia 38.633
rfoot -0.402885 -7.50948
rtoes -2.44497
lfemur -32.6921 -2.97425 -20.5324
ltibia 35.4499
lfoot -7.30303 4.89784
ltoes -1.96072
36
root -1.51788 17.9471 41.4388 -175.026 7.281 -178.055
lowerback 20.8896 -0.495206 0.676345
upperback 2.757 0.981102 6.45747
thorax -8.80896 0.923856 6.4092
lowerneck -11.264 -0.617087 -1.53704
upperneck 16.3829 0.836868 -5.14767
head 6.88849 0.0473482 -1.30716
rclavicle -2.62396e-014 5.24792e-014
rhumerus -61.6834 -37.9568 -36.406
rradius 73.1363
rwrist -53.441
rhand -17.3371 -4.1828
rfingers 7.12502
rthumb 8.91003 -33.9747
lclavicle -2.62396e-014 5.24792e-014
lhumerus -50.5216 10.4813 79.7598
lradius 38.6159
lwrist 6.86942
lhand -7.44107 51.739
lfingers 7.12502
lthumb 18.4466 80.8844
rfemur 3.88708 2.35975 22.1309
rtibia 41.0132
rfoot 2.7887 -7.34816
rtoes 0.749394
lfemur -31.5679 -2.86018 -20.8482
ltibia 35.4303
lfoot -7.92008 5.50285
ltoes -1.56051
37
root -1.53026 17.9559 41.2722 -175.02 6.95605 -178.283
lowerback 20.7198 -0.803985 0.663283
upperback 2.96666 0.519954 6.18863
thorax -8.43015 0.686329 6.23232
lowerneck -11.6465 -0.366915 -1.18834
upperneck 16.1968 1.05879 -5.07459
head 6.89921 0.163015 -1.32252
rclavicle -2.38542e-014 -2.54444e-014
rhumerus -62.8294 -38.177 -35.893
rradius 74.9447
rwrist -53.8514
rhand -16.3578 -3.9662
rfingers 7.12502
rthumb 9.85501 -33.7156
lclavicle -2.38542e-014 -2.54444e-014
lhumerus -50.4675 10.3068 79.4786
lradius 38.4895
lwrist 6.91269
lhand -7.10776 51.7055
lfingers 7.12502
lthumb 18.7672 80.8202
rfemur 2.26899 2.0771 21.7264
rtibia 43.6242
rfoot 6.04094 -7.4104
rtoes 2.17193
lfemur -30.9284 -3.20321 -21.1474
ltibia 35.2769
lfoot -8.12612 5.01024
ltoes -5.99196
38
root -1.53726 17.9579 41.1048 -175.13 6.44823 -178.771
lowerback 21.0535 -1.08785 0.264607
upperback 2.91056 0.0273305 5.97487
thorax -8.61579 0.45229 6.37689
lowerneck -12.0338 -0.168457 -0.977937
upperneck 16.4003 1.28373 -4.99509
head 7.03752 0.275696 -1.31325
rclavicle -5.1684e-014 8.5875e-014
rhumerus -63.8447 -37.931 -35.4295
rradius 76.703
rwrist -53.8587
rhand -15.7526 -3.75955
rfingers 7.12502
rthumb 10.4388 -33.4804
lclavicle -5.1684e-014 8.5875e-014
lhumerus -50.7401 10.0806 79.3123
lradius 38.2766
lwrist 7.04404
lhand -7.0903 51.4125
lfingers 7.12502
lthumb 18.784 80.5256
rfemur 0.731454 1.82668 21.1701
rtibia 46.3625
rfoot 8.75273 -7.91443
rtoes 5.29824
lfemur -30.1323 -3.47505 -21.7777
ltibia 35.059
lfoot -8.60546 4.19457
ltoes -6.83782
39
root -1.54281 17.9623 40.9388 -175.224 6.28643 -179.317
lowerback 21.5295 -1.26132 -0.466863
upperback 2.69684 -0.388509 5.89615
thorax -9.05363 0.274503 6.86479
lowerneck -11.7748 -0.0217413 -1.26597
upperneck 16.3642 1.50666 -4.82829
head 6.98311 0.386344 -1.18953
rclavicle -1.39149e-014 6.36111e-015
rhumerus -64.5381 -37.0075 -35.0283
rradius 78.3858
rwrist -53.3999
rhand -15.2051 -3.5396
rfingers 7.12502
rthumb 10.9669 -33.2332
lclavicle -1.39149e-014 6.36111e-015
lhumerus -51.4125 10.2324 79.1853
lradius 38.0125
lwrist 6.84239
lhand -6.98913 50.4973
lfingers 7.12502
lthumb 18.8813 79.6009
rfemur -1.00676 1.74163 20.4758
rtibia 49.2492
rfoot 11.3494 -8.12364
rtoes 8.46224
lfemur -29.278 -3.33033 -22.53
ltibia 34.7906
lfoot -9.10648 3.48446
ltoes -6.20508
40
root -1.54806 17.9728 40.7775 -175.388 6.30588 -179.792
lowerback 21.9727 -1.38662 -1.20218
upperback 2.61485 -0.742258 5.81981
thorax -9.32645 0.131438 7.33909
lowerneck -11.2355 0.113627 -1.3751
upperneck 15.9243 1.68263 -4.90655
head 6.75077 0.473849 -1.1783
rclavicle 2.90226e-014 1.90833e-014
rhumerus -64.8379 -36.1422 -34.8393
rradius 79.9675
rwrist -52.638
rhand -15.4501 -3.11533
rfingers 7.12502
rthumb 10.7306 -32.8213
lclavicle 2.90226e-014 1.90833e-014
lhumerus -51.9827 10.2131 79.1653
lradius 38.0054
lwrist 6.59712
lhand -6.41896 50.5263
lfingers 7.12502
lthumb 19.4296 79.5755
rfemur -2.77057 1.7776 19.8679
rtibia 52.1783
rfoot 13.4895 -8.86345
rtoes 13.9406
lfemur -28.337 -3.08818 -23.1894
ltibia 34.4485
lfoot -9.39967 2.99039
ltoes -3.61522
